<?xml version="1.0" standalone="no"?>
<!DOCTYPE svg PUBLIC "-//W3C//DTD SVG 20010904//EN"
 "http://www.w3.org/TR/2001/REC-SVG-20010904/DTD/svg10.dtd">
<svg version="1.0" xmlns="http://www.w3.org/2000/svg"
 width="1000.000000pt" height="1000.000000pt" viewBox="0 0 1000.000000 1000.000000"
 preserveAspectRatio="xMidYMid meet">
<metadata>
Created by potrace 1.14, written by Peter Selinger 2001-2017
</metadata>
<g transform="translate(0.000000,1000.000000) scale(0.100000,-0.100000)"
fill="#000000" stroke="none">
<path d="M3040 7249 c-100 -85 -238 -165 -425 -246 -294 -128 -495 -226 -620
-302 -148 -91 -321 -248 -417 -381 -88 -121 -192 -310 -170 -310 5 0 40 29 78
66 192 182 414 336 638 445 151 73 155 74 469 181 131 45 216 80 230 94 12 12
39 55 61 95 21 41 50 94 63 119 14 25 41 74 61 110 19 36 45 84 58 107 13 23
20 44 16 47 -4 2 -23 -9 -42 -25z"/>
<path d="M2425 6459 c-587 -193 -878 -382 -1093 -708 -45 -68 -80 -126 -78
-129 3 -2 47 29 98 70 305 244 537 356 928 449 91 22 179 46 195 53 19 9 39
32 55 62 14 27 51 95 83 152 31 57 55 108 52 112 -9 14 -30 8 -240 -61z"/>
<path d="M8027 5988 c3 -231 -1 -208 33 -208 l30 0 0 85 c0 75 2 86 20 95 28
15 56 4 64 -23 3 -12 6 -52 6 -89 l0 -68 29 0 29 0 1 81 c1 107 -15 146 -63
155 -26 4 -43 2 -61 -10 l-25 -16 0 65 0 65 -32 0 -33 0 2 -132z"/>
<path d="M5473 6102 c-28 -3 -34 -10 -59 -68 -16 -35 -31 -64 -34 -64 -3 0
-18 29 -34 65 -28 61 -32 65 -63 65 -36 0 -40 -6 -19 -35 7 -11 28 -47 46 -80
27 -50 33 -72 35 -130 l2 -70 29 0 29 0 5 75 c5 61 11 85 38 128 17 29 32 57
32 62 0 6 4 10 9 10 7 0 25 43 18 45 -1 0 -16 -1 -34 -3z"/>
<path d="M7204 6101 c-2 -2 -4 -15 -4 -28 0 -21 5 -23 45 -23 l45 0 0 -135 0
-135 30 0 30 0 0 134 0 135 47 3 c36 2 47 7 49 21 1 10 -3 20 -10 23 -16 6
-226 11 -232 5z"/>
<path d="M7805 6102 c-71 -6 -71 -52 1 -52 l43 0 0 -92 c-1 -186 -3 -178 31
-178 l30 0 0 135 0 135 46 0 c43 0 45 1 42 26 -3 25 -5 26 -78 27 -41 1 -93 1
-115 -1z"/>
<path d="M8723 6102 l-82 -3 2 -157 2 -157 24 -3 c32 -5 38 8 35 78 l-1 59 36
-1 c76 -1 81 1 81 27 0 24 -3 25 -58 25 l-58 0 -1 40 -1 40 64 0 c61 0 64 1
64 24 0 30 -7 32 -107 28z"/>
<path d="M6267 6073 c3 -16 21 -86 38 -158 l32 -130 33 0 c33 0 34 1 52 70 10
39 21 86 24 105 3 19 9 37 12 40 4 3 6 4 6 2 -1 -2 4 -29 12 -61 7 -32 15 -69
18 -82 13 -71 18 -79 46 -79 16 0 31 4 34 8 3 5 17 53 31 108 14 54 30 110 35
124 4 14 11 37 14 53 6 25 4 27 -27 27 -20 0 -34 -5 -34 -12 -1 -13 -30 -150
-43 -203 -7 -28 -8 -29 -10 -5 -1 14 -3 32 -5 40 -8 33 -13 58 -25 118 -12 61
-13 62 -45 62 -34 0 -39 -10 -61 -115 -2 -11 -10 -45 -17 -75 l-13 -55 -24
123 -24 122 -33 0 c-31 0 -33 -2 -26 -27z"/>
<path d="M9168 6073 c-17 -4 -23 -21 -19 -52 2 -8 -2 -10 -9 -6 -12 8 -30 -11
-30 -31 0 -7 8 -14 19 -17 16 -4 18 -13 16 -58 -4 -101 21 -139 88 -131 21 3
27 9 27 28 0 19 -5 24 -24 24 -29 0 -32 9 -32 80 1 53 2 55 29 58 23 3 28 8
25 25 -2 16 -10 22 -25 21 -23 -1 -25 0 -27 38 -1 23 -11 28 -38 21z"/>
<path d="M5542 6000 c-84 -52 -73 -184 19 -215 44 -15 95 -4 128 30 22 22 26
34 26 86 0 57 -2 63 -32 88 -41 35 -96 39 -141 11z m111 -80 c17 -67 -29 -118
-78 -86 -31 20 -36 67 -13 113 23 45 76 30 91 -27z"/>
<path d="M5773 6011 c-8 -5 -9 -72 -4 -167 3 -54 79 -83 129 -48 20 14 22 14
22 -1 0 -11 7 -15 27 -12 l28 4 0 111 c1 100 -1 111 -18 116 -39 10 -46 -2
-43 -75 2 -79 -11 -109 -50 -109 -31 0 -37 16 -37 106 0 41 -3 74 -6 75 -3 0
-13 2 -22 4 -9 1 -21 0 -26 -4z"/>
<path d="M6044 6012 c-7 -4 -11 -48 -11 -119 l1 -113 31 0 31 0 1 76 c0 79 11
103 49 108 12 2 20 12 22 29 3 22 -1 27 -17 27 -12 0 -30 -9 -41 -20 -14 -14
-20 -16 -20 -6 0 8 -7 17 -16 20 -19 7 -17 7 -30 -2z"/>
<path d="M6702 6010 c-26 -11 -27 -48 -1 -42 36 9 81 5 90 -8 11 -18 12 -30 2
-29 -64 10 -133 -32 -133 -81 0 -28 31 -69 54 -71 27 -3 62 4 75 14 11 9 15 9
18 0 3 -7 16 -13 30 -13 l25 0 -4 95 c-2 80 -6 98 -24 116 -25 24 -96 34 -132
19z m98 -136 c0 -22 -23 -54 -40 -54 -44 0 -54 42 -14 63 38 20 54 17 54 -9z"/>
<path d="M6890 6009 c0 -4 19 -56 42 -114 45 -113 44 -129 0 -150 -15 -7 -22
-19 -22 -37 0 -33 12 -35 54 -8 37 22 64 67 99 165 14 39 32 87 41 107 19 44
16 47 -41 40 -7 -1 -17 -21 -23 -44 -19 -72 -33 -107 -42 -102 -4 3 -8 14 -8
24 0 10 -9 43 -21 72 -18 49 -24 55 -50 55 -16 0 -29 -4 -29 -8z"/>
<path d="M7483 6004 c-71 -35 -77 -163 -9 -208 81 -52 186 6 186 104 0 94 -90
147 -177 104z m102 -55 c14 -21 16 -69 4 -91 -23 -43 -48 -49 -79 -18 -36 36
-23 119 20 132 17 6 45 -6 55 -23z"/>
<path d="M8351 6007 c-40 -20 -63 -60 -63 -110 0 -25 5 -54 11 -65 24 -44 88
-64 157 -48 25 6 31 11 27 26 -5 17 -12 19 -48 15 -33 -4 -48 -1 -69 16 -40
32 -21 45 62 42 l69 -3 -2 38 c-5 82 -74 125 -144 89z m81 -51 c19 -28 8 -37
-41 -35 -40 2 -48 5 -44 18 13 37 65 47 85 17z"/>
<path d="M8868 6007 c-10 -26 -1 -169 12 -192 22 -41 70 -50 111 -23 24 16 28
16 33 2 4 -9 15 -14 28 -12 22 3 23 6 23 117 0 104 -2 114 -19 117 -37 5 -42
-5 -43 -86 -1 -44 -4 -84 -8 -90 -3 -5 -19 -10 -35 -10 -36 0 -44 22 -42 113
1 37 -2 67 -6 68 -4 0 -17 2 -29 5 -11 2 -23 -2 -25 -9z"/>
<path d="M9306 6011 c-2 -3 -3 -48 -2 -98 1 -81 4 -95 23 -114 26 -26 73 -28
109 -4 21 14 24 14 24 0 0 -9 9 -15 25 -15 l26 0 -3 118 -3 117 -25 0 c-24 0
-25 -2 -28 -80 -3 -86 -12 -105 -48 -105 -31 0 -46 36 -44 105 3 78 2 80 -25
81 -14 1 -27 -1 -29 -5z"/>
<path d="M9570 5900 l0 -120 30 0 30 0 0 74 c0 79 13 106 51 106 15 0 19 7 19
31 0 29 -2 31 -27 24 -16 -3 -32 -14 -37 -23 -8 -14 -10 -14 -16 3 -3 10 -16
20 -28 22 -22 3 -22 1 -22 -117z"/>
<path d="M9784 6006 c-66 -29 -83 -141 -31 -194 46 -45 161 -48 163 -4 1 21
-2 22 -40 19 -22 -3 -51 -1 -62 3 -21 8 -39 38 -30 48 3 2 38 5 78 6 l73 1 -3
35 c-6 81 -71 119 -148 86z m75 -42 c26 -26 16 -38 -31 -39 -52 -1 -62 14 -27
38 22 16 44 16 58 1z"/>
<path d="M2380 5989 c-25 -4 -65 -10 -90 -14 -209 -31 -429 -101 -590 -188
-133 -71 -340 -219 -419 -298 -55 -55 -85 -96 -108 -145 -49 -105 -146 -329
-184 -426 -19 -48 -37 -88 -41 -88 -5 0 -54 83 -151 260 -17 30 -79 142 -139
249 -59 106 -108 195 -108 198 0 3 -9 17 -19 31 l-19 27 -248 -2 c-137 -1
-252 -2 -256 -2 -5 -1 -8 -388 -8 -861 l0 -860 188 0 189 0 0 600 c0 330 3
603 6 606 3 3 31 -41 63 -98 83 -148 83 -148 179 -318 48 -85 103 -183 122
-218 l35 -64 -60 -171 c-33 -95 -70 -197 -81 -227 -16 -45 -21 -92 -26 -261
-5 -159 -4 -209 6 -214 7 -5 18 0 26 11 27 37 107 323 148 527 3 15 7 39 10
55 31 153 139 439 227 602 78 144 272 425 287 416 3 -2 6 -284 6 -625 l0 -621
25 -1 c14 0 103 -1 199 -1 l174 -1 1 829 1 828 80 63 c91 73 273 201 325 231
19 10 58 32 85 49 28 16 94 51 148 77 53 27 97 49 97 50 0 4 -39 2 -80 -5z"/>
<path d="M2544 5575 c-10 -17 -56 -120 -119 -270 -40 -94 -215 -592 -230 -655
-2 -8 -18 -60 -35 -115 -89 -283 -192 -656 -184 -664 3 -3 102 -6 221 -6 182
0 216 2 223 15 4 8 23 79 41 157 l34 143 30 1 c120 4 527 0 532 -4 6 -6 46
-163 71 -277 l8 -35 227 0 c125 0 227 2 227 4 0 8 -71 272 -99 366 -16 55 -41
141 -56 190 -57 193 -236 721 -275 810 -5 11 -29 70 -54 130 -78 191 -95 225
-113 226 -10 0 -112 1 -227 2 -199 2 -209 1 -222 -18z m280 -568 c42 -113 138
-436 132 -446 -5 -8 -343 -7 -352 1 -8 8 44 189 107 375 28 81 53 156 56 166
8 27 17 12 57 -96z"/>
<path d="M3784 5592 l-21 -3 1 -862 1 -861 213 -1 c132 0 216 4 221 10 4 5 7
141 6 300 l0 290 30 -1 c16 -1 46 -2 65 -3 45 -1 112 -44 133 -85 9 -17 63
-139 119 -271 l103 -240 230 1 c195 0 230 2 227 15 -4 20 -210 505 -238 562
-25 48 -90 121 -133 148 l-25 16 60 32 c159 85 223 196 229 396 6 176 -28 270
-134 375 -53 52 -152 117 -191 125 -3 1 -30 9 -60 18 -102 32 -194 40 -505 41
-170 0 -319 0 -331 -2z m643 -387 c93 -28 123 -66 128 -165 5 -106 -46 -172
-152 -194 -43 -10 -193 -15 -194 -7 -4 16 -5 367 -2 374 7 13 168 7 220 -8z"/>
<path d="M5327 5592 c-16 -3 -17 -66 -17 -865 l0 -862 212 1 c117 1 216 2 221
3 4 0 7 388 7 861 0 473 -3 860 -7 861 -24 3 -402 3 -416 1z"/>
<path d="M6051 5585 c-5 -5 -8 -394 -8 -862 0 -771 2 -853 16 -854 53 -4 414
-3 419 1 4 3 7 140 7 305 l0 300 270 0 270 0 3 186 2 186 -272 0 -273 0 -1
186 -1 187 216 1 c119 0 264 0 324 -1 l107 -1 1 58 c2 134 -1 306 -6 311 -10
11 -1066 7 -1074 -3z"/>
<path d="M7382 5590 c-18 -5 -18 -33 -18 -860 -1 -470 3 -857 7 -860 4 -3 254
-5 556 -5 l548 0 0 185 0 185 -325 1 c-179 1 -330 2 -337 3 -9 1 -12 42 -11
154 l1 152 286 5 286 5 0 178 c0 98 -2 182 -5 186 -3 4 -131 7 -285 6 l-280 0
-2 148 -3 147 78 0 c42 1 194 2 337 3 l260 2 1 185 1 185 -538 0 c-296 0 -546
-2 -557 -5z"/>
<path d="M8630 5590 c-4 -3 -8 -87 -8 -188 l1 -183 106 1 c58 1 154 1 213 1
l108 -1 2 -677 3 -678 215 0 215 0 0 678 0 677 75 0 c41 1 137 1 213 0 75 -1
138 3 138 7 1 4 2 88 3 186 2 172 1 177 -19 178 -94 4 -1259 3 -1265 -1z"/>
<path d="M6568 3555 c-2 -1 -30 -5 -63 -8 -279 -28 -464 -239 -449 -513 7
-131 62 -217 176 -273 108 -53 229 -60 403 -22 89 19 90 20 108 123 26 141 27
148 42 223 8 39 16 82 19 98 l5 27 -159 0 -158 0 -11 -62 c-6 -35 -13 -73 -15
-85 -5 -22 -2 -23 50 -23 55 0 56 0 50 -27 -3 -16 -8 -45 -12 -66 -8 -47 -24
-55 -96 -51 -111 6 -167 61 -172 168 -8 181 112 307 293 307 76 0 138 -9 164
-23 10 -5 20 -8 21 -6 11 12 56 163 52 173 -2 7 -30 17 -63 23 -58 12 -178 23
-185 17z"/>
<path d="M7219 3556 c-2 -2 -39 -6 -81 -9 -126 -10 -125 -10 -137 -80 -6 -34
-13 -71 -15 -82 -2 -11 -21 -103 -41 -205 -19 -102 -43 -219 -51 -260 -16 -77
-26 -140 -28 -175 -1 -19 5 -20 99 -20 l100 0 30 153 29 152 42 0 c25 0 49 -6
58 -16 33 -32 34 -37 52 -228 2 -28 7 -52 10 -55 3 -3 52 -6 110 -7 l104 -1
-5 26 c-2 14 -7 49 -9 76 -18 176 -29 221 -62 256 l-24 26 27 12 c63 28 103
65 127 115 49 104 25 206 -62 262 -56 36 -103 50 -192 53 -35 1 -67 4 -71 7
-3 2 -8 2 -10 0z m72 -176 c94 -26 95 -129 1 -174 -33 -16 -132 -22 -132 -8 0
31 32 177 39 182 17 10 54 10 92 0z"/>
<path d="M8015 3553 c-90 -19 -202 -79 -250 -135 -37 -44 -86 -133 -100 -183
-54 -190 -27 -343 79 -438 50 -44 51 -45 117 -67 153 -52 343 -1 453 121 98
109 148 294 121 444 -20 106 -100 207 -193 240 -45 16 -184 27 -227 18z m137
-191 c40 -23 62 -76 62 -152 0 -213 -111 -357 -247 -319 -88 24 -124 134 -92
281 21 95 93 191 153 204 15 3 32 7 37 9 16 5 58 -6 87 -23z"/>
<path d="M9627 3554 c-1 -1 -33 -4 -71 -8 -88 -8 -116 -15 -117 -30 0 -6 -2
-19 -4 -29 -2 -10 -9 -51 -16 -90 -7 -40 -13 -74 -14 -77 -1 -3 -5 -25 -9 -50
-5 -25 -10 -54 -13 -65 -6 -31 -63 -332 -77 -411 l-12 -70 97 0 c54 1 100 4
103 7 7 7 12 29 22 89 3 19 12 61 19 93 15 67 15 64 15 76 0 5 28 10 63 10
173 2 288 57 354 171 38 65 45 181 13 242 -40 77 -96 113 -209 134 -24 5 -140
11 -144 8z m133 -192 c54 -41 27 -147 -45 -178 -33 -13 -116 -20 -126 -9 -8 7
32 199 42 206 19 12 104 -1 129 -19z"/>
<path d="M8626 3531 c-3 -9 -9 -41 -15 -71 -12 -61 -12 -59 -35 -180 -9 -47
-18 -96 -21 -110 -15 -77 -20 -124 -20 -200 1 -67 5 -93 22 -125 48 -91 126
-131 258 -134 141 -2 234 38 307 134 34 45 78 158 92 235 3 14 10 50 16 80 6
30 13 70 16 89 3 18 7 41 9 50 20 101 45 234 45 239 0 4 -46 7 -101 7 -113 0
-110 2 -123 -81 -4 -21 -8 -46 -11 -54 -2 -8 -6 -31 -9 -50 -3 -19 -19 -104
-35 -189 -42 -213 -77 -276 -160 -284 -100 -11 -142 66 -110 203 6 25 12 54
14 65 1 11 17 99 35 195 17 96 33 179 33 184 1 6 -43 10 -100 11 -85 1 -104
-2 -107 -14z"/>
</g>
</svg>
